<svg xmlns="http://www.w3.org/2000/svg" xmlns:xlink="http://www.w3.org/1999/xlink">
  <defs>

    <symbol id="alert-circle" xmlns="http://www.w3.org/2000/svg" fill="none" viewBox="0 0 24 24">
      <path stroke="currentColor" stroke-linecap="round" stroke-linejoin="round" stroke-width="1.5" d="M12 13V7m.5 9.5a.5.5 0 0 1-1 0m1 0a.5.5 0 0 0-1 0m1 0h-1M22 12c0 5.523-4.477 10-10 10S2 17.523 2 12 6.477 2 12 2s10 4.477 10 10Z"/>
    </symbol>

    <symbol id="arrow-left" xmlns="http://www.w3.org/2000/svg" fill="none" viewBox="0 0 24 24">
      <path stroke="currentColor" stroke-linecap="round" stroke-linejoin="round" stroke-width="1.5" d="m10 5-7 7m0 0 7 7m-7-7h18"/>
    </symbol>

    <symbol id="bell-check" xmlns="http://www.w3.org/2000/svg" fill="none" viewBox="0 0 24 24">
      <path stroke="currentColor" stroke-linecap="round" stroke-linejoin="round" stroke-width="1.5" d="M8 19.546C8.659 21.027 10.378 22 12 22c1.622 0 3.341-.973 4-2.454M9.5 12.5 11 14l3.5-3.5m3.5.69V8a6 6 0 0 0-6-6v0a6 6 0 0 0-6 6v3.19c0 .834-.354 1.629-.974 2.186l-1.107.997c-1.323 1.19-.901 3.36.771 3.969l.211.077a20.773 20.773 0 0 0 14.198 0l.21-.077c1.673-.608 2.095-2.778.772-3.969l-1.107-.997A2.941 2.941 0 0 1 18 11.19Z"/>
    </symbol>

    <symbol id="close" xmlns="http://www.w3.org/2000/svg" fill="none" viewBox="0 0 24 24">
      <path stroke="currentColor" stroke-linecap="round" stroke-linejoin="round" stroke-width="1.5" d="M6 18 18 6M6 6l12 12"/>
    </symbol>

    <symbol id="info" xmlns="http://www.w3.org/2000/svg" fill="none" viewBox="0 0 24 24">
      <path stroke="currentColor" stroke-linecap="round" stroke-linejoin="round" stroke-width="1.5" d="M12 16v-5m.5-3a.5.5 0 0 1-1 0m1 0a.5.5 0 0 0-1 0m1 0h-1M22 12c0 5.523-4.477 10-10 10S2 17.523 2 12 6.477 2 12 2s10 4.477 10 10Z"/>
    </symbol>

    <symbol id="refresh-ccw" xmlns="http://www.w3.org/2000/svg" fill="none" viewBox="0 0 24 24">
      <path stroke="currentColor" stroke-linecap="round" stroke-linejoin="round" stroke-width="1.5" d="M22 12c0 5.523-4.477 10-10 10s-9-5.5-9-5.5M2 12A9.98 9.98 0 0 1 12 2c6.667 0 10 5.5 10 5.5m0 0V4m0 3.5h-3.5M3 16.5h3.5m-3.5 0V20"/>
    </symbol>

  </defs>
</svg>
