<svg xmlns="http://www.w3.org/2000/svg" xmlns:xlink="http://www.w3.org/1999/xlink">
  <defs>
    <symbol id="alert-circle-filled" xmlns="http://www.w3.org/2000/svg" width="24" height="24" fill="none" viewBox="0 0 24 24">
      <path fill="currentColor" fill-rule="evenodd" d="M1.25 12C1.25 6.063 6.063 1.25 12 1.25S22.75 6.063 22.75 12 17.937 22.75 12 22.75 1.25 17.937 1.25 12Zm11.5-5a.75.75 0 0 0-1.5 0v6a.75.75 0 0 0 1.5 0V7ZM12 15.25a1.25 1.25 0 1 0 0 2.5 1.25 1.25 0 0 0 0-2.5Z" clip-rule="evenodd"/>
    </symbol>

    <symbol id="check-circle-2-filled" xmlns="http://www.w3.org/2000/svg" width="24" height="24" fill="none" viewBox="0 0 24 24">
      <path fill="currentColor" fill-rule="evenodd" d="M1.25 12C1.25 6.063 6.063 1.25 12 1.25S22.75 6.063 22.75 12 17.937 22.75 12 22.75 1.25 17.937 1.25 12Zm15.28-2.47a.75.75 0 0 0-1.06-1.06L11 12.94l-1.47-1.47a.75.75 0 0 0-1.06 1.06l2 2a.75.75 0 0 0 1.06 0l5-5Z" clip-rule="evenodd"/>
    </symbol>

    <symbol id="chevron-up-filled" xmlns="http://www.w3.org/2000/svg" width="24" height="24" fill="none" viewBox="0 0 24 24">
      <path fill="currentColor" d="M10.869 9.131 7.73 12.27c-.856.856-1.285 1.285-1.314 1.653a1 1 0 0 0 .348.838c.28.24.886.24 2.098.24h6.274c1.212 0 1.818 0 2.098-.24a1 1 0 0 0 .348-.838c-.03-.368-.458-.797-1.314-1.653L13.13 9.13c-.396-.396-.594-.594-.822-.668a1 1 0 0 0-.618 0c-.228.074-.426.272-.822.668Z"/>
    </symbol>

    <symbol id="edit" xmlns="http://www.w3.org/2000/svg" width="24" height="24" fill="none" viewBox="0 0 24 24">
      <path stroke="currentColor" stroke-linecap="round" stroke-linejoin="round" stroke-width="1.5" d="M12 2h-2c-2.8 0-4.2 0-5.27.545A5 5 0 0 0 2.545 4.73C2 5.8 2 7.2 2 10v4c0 2.8 0 4.2.545 5.27a5 5 0 0 0 2.185 2.185C5.8 22 7.2 22 10 22h4c2.8 0 4.2 0 5.27-.545a5 5 0 0 0 2.185-2.185C22 18.2 22 16.8 22 14v-2m-5-8a2.652 2.652 0 0 0 3 3m-9 6 .57-2.28c.16-.64.24-.96.369-1.259.114-.265.257-.517.425-.75.19-.265.423-.498.89-.964L17.5 3.5c.08-.08.12-.12.155-.152a2 2 0 0 1 2.69 0c.036.033.075.072.155.152v0c.08.08.12.12.151.155a2 2 0 0 1 0 2.69 4.899 4.899 0 0 1-.151.155l-4.247 4.246c-.466.467-.7.7-.963.89a4 4 0 0 1-.751.425c-.299.129-.619.209-1.259.369L11 13Z"/>
    </symbol>

    <symbol id="email" xmlns="http://www.w3.org/2000/svg" width="24" height="24" fill="none" viewBox="0 0 24 24">
      <path stroke="currentColor" stroke-linecap="round" stroke-width="1.5" d="m18 8-1 .667-.562.375c-1.604 1.069-2.406 1.603-3.273 1.811a5.001 5.001 0 0 1-2.33 0c-.867-.208-1.669-.742-3.273-1.811L7 8.667 6 8m4 13h4c2.8 0 4.2 0 5.27-.545a5 5 0 0 0 2.185-2.185C22 17.2 22 15.8 22 13v-2c0-2.8 0-4.2-.545-5.27a5 5 0 0 0-2.185-2.185C18.2 3 16.8 3 14 3h-4c-2.8 0-4.2 0-5.27.545A5 5 0 0 0 2.545 5.73C2 6.8 2 8.2 2 11v2c0 2.8 0 4.2.545 5.27a5 5 0 0 0 2.185 2.185C5.8 21 7.2 21 10 21Z"/>
    </symbol>

    <symbol id="gear" xmlns="http://www.w3.org/2000/svg" width="24" height="24" fill="none" viewBox="0 0 24 24">
      <path stroke="currentColor" stroke-linecap="round" stroke-linejoin="round" stroke-width="1.5" d="M12 4c-.697 0-1.387-.262-1.814-.813l-.452-.583a2 2 0 0 0-2.58-.507l-1.307.754a2 2 0 0 0-.851 2.489l.279.683c.264.645.147 1.37-.203 1.974v0C4.723 8.6 4.15 9.07 3.46 9.165l-.73.1A2 2 0 0 0 1 11.244v1.51a2 2 0 0 0 1.73 1.98l.73.1c.69.095 1.263.565 1.612 1.168v0c.35.604.467 1.329.203 1.974l-.28.683a2 2 0 0 0 .852 2.49l1.306.754a2 2 0 0 0 2.581-.508l.452-.583C10.613 20.262 11.303 20 12 20v0c.697 0 1.387.262 1.814.813l.452.583a2 2 0 0 0 2.58.507l1.307-.754a2 2 0 0 0 .852-2.489l-.28-.683c-.264-.645-.147-1.37.203-1.974v0c.349-.603.922-1.073 1.612-1.168l.73-.1a2 2 0 0 0 1.73-1.98v-1.51a2 2 0 0 0-1.73-1.98l-.73-.1c-.69-.095-1.263-.565-1.612-1.168v0c-.35-.604-.467-1.329-.203-1.974l.28-.683a2 2 0 0 0-.852-2.49l-1.306-.753a2 2 0 0 0-2.581.507l-.452.583C13.387 3.738 12.697 4 12 4v0Z"/>
      <path stroke="currentColor" stroke-linecap="round" stroke-linejoin="round" stroke-width="1.5" d="M15 12a3 3 0 1 1-6 0 3 3 0 0 1 6 0Z"/>
    </symbol>


    <symbol id="grid" xmlns="http://www.w3.org/2000/svg" width="24" height="24" fill="none" viewBox="0 0 24 24">
      <path stroke="currentColor" stroke-linecap="round" stroke-linejoin="round" stroke-width="1.5" d="M9 2v20m1 0h4c2.8 0 4.2 0 5.27-.545a5 5 0 0 0 2.185-2.185C22 18.2 22 16.8 22 14v-4c0-2.8 0-4.2-.545-5.27a5 5 0 0 0-2.185-2.185C18.2 2 16.8 2 14 2h-4c-2.8 0-4.2 0-5.27.545A5 5 0 0 0 2.545 4.73C2 5.8 2 7.2 2 10v4c0 2.8 0 4.2.545 5.27a5 5 0 0 0 2.185 2.185C5.8 22 7.2 22 10 22Z"/>
    </symbol>

    <symbol id="home" xmlns="http://www.w3.org/2000/svg" width="24" height="24" fill="none" viewBox="0 0 24 24">
      <path stroke="currentColor" stroke-linecap="round" stroke-linejoin="round" stroke-width="1.5" d="M9 16h6M7.002 3.998l-2 1.6C3.9 6.48 3.35 6.921 2.952 7.468a5 5 0 0 0-.772 1.607C2 9.727 2 10.433 2 11.845V14c0 2.8 0 4.2.545 5.27a5 5 0 0 0 2.185 2.185C5.8 22 7.2 22 10 22h4c2.8 0 4.2 0 5.27-.545a5 5 0 0 0 2.185-2.185C22 18.2 22 16.8 22 14v-2.155c0-1.412 0-2.118-.18-2.77a5.001 5.001 0 0 0-.772-1.606c-.397-.548-.948-.989-2.05-1.871l-2-1.6c-1.784-1.427-2.676-2.14-3.665-2.414a5 5 0 0 0-2.666 0c-.99.274-1.881.987-3.665 2.414Z"/>
    </symbol>

    <symbol id="home-filled" xmlns="http://www.w3.org/2000/svg" width="24" height="24" fill="none" viewBox="0 0 24 24">
      <g clip-path="url(#a)">
        <path fill="currentColor" fill-rule="evenodd" d="M1.25 12.253c0-1.694 0-2.541.215-3.324a6 6 0 0 1 .927-1.928c.476-.656 1.138-1.186 2.46-2.244l1.15-.92C8.144 2.125 9.214 1.268 10.4.94a6 6 0 0 1 3.2 0c1.187.328 2.257 1.185 4.397 2.897l1.15.92C20.47 5.815 21.132 6.345 21.607 7a6 6 0 0 1 .928 1.928c.215.783.215 1.63.215 3.324v.897c0 3.36 0 5.04-.654 6.324a6 6 0 0 1-2.622 2.622c-1.284.654-2.964.654-6.324.654h-2.3c-3.36 0-5.04 0-6.324-.654a6 6 0 0 1-2.622-2.622C1.25 18.19 1.25 16.51 1.25 13.15v-.897Zm7.5 2.997a.75.75 0 0 0 0 1.5h6.5a.75.75 0 0 0 0-1.5h-6.5Z" clip-rule="evenodd"/>
      </g>
      <defs>
        <clipPath id="a">
          <path fill="currentColor" d="M0 0h24v24H0z"/>
        </clipPath>
      </defs>
    </symbol>

    <symbol id="loader" xmlns="http://www.w3.org/2000/svg" width="24" height="24" fill="none" viewBox="0 0 24 24">
      <path stroke="currentColor" stroke-linecap="round" stroke-linejoin="round" stroke-width="1.5" d="m17 7 2.364-2.364M4.636 19.364 7 17M7 7 4.636 4.636m14.728 14.728L17 17m1.657-5H22M2 12h3.343M12 5.343V2m0 20v-3.343"/>
    </symbol>

    <symbol id="log-out" xmlns="http://www.w3.org/2000/svg" width="24" height="24" fill="none" viewBox="0 0 24 24">
      <path stroke="currentColor" stroke-linecap="round" stroke-linejoin="round" stroke-width="1.5" d="M10 2H8.4c-2.24 0-3.36 0-4.216.436a4 4 0 0 0-1.748 1.748C2 5.04 2 6.16 2 8.4v7.2c0 2.24 0 3.36.436 4.216a4 4 0 0 0 1.748 1.748C5.04 22 6.16 22 8.4 22H10m0-10h12m0 0-4-4m4 4-4 4"/>
    </symbol>

    <symbol id="question" xmlns="http://www.w3.org/2000/svg" width="24" height="24" fill="none" viewBox="0 0 24 24">
      <path stroke="currentColor" stroke-linecap="round" stroke-linejoin="round" stroke-width="1.5" d="M10 10.5V10a2 2 0 1 1 4 0v.121c0 .563-.223 1.102-.621 1.5L12 13m.5 3a.5.5 0 0 1-1 0m1 0a.5.5 0 0 0-1 0m1 0h-1M22 12c0 5.523-4.477 10-10 10S2 17.523 2 12 6.477 2 12 2s10 4.477 10 10Z"/>
    </symbol>

    <symbol id="trash" xmlns="http://www.w3.org/2000/svg" width="24" height="24" fill="none" viewBox="0 0 24 24">
      <path stroke="currentColor" stroke-linecap="round" stroke-linejoin="round" stroke-width="1.5" d="m4 5 .646 10.976c.124 2.12.187 3.18.64 3.985a4 4 0 0 0 1.733 1.635C7.849 22 8.91 22 11.035 22h1.93c2.124 0 3.186 0 4.016-.404a4 4 0 0 0 1.734-1.635c.452-.805.515-1.865.64-3.985L20 5M4 5H2m2 0h16m0 0h2m-6 0-.453-1.359c-.197-.59-.295-.885-.478-1.103a1.5 1.5 0 0 0-.601-.434C14.203 2 13.892 2 13.27 2h-2.54c-.622 0-.933 0-1.198.104a1.5 1.5 0 0 0-.602.434c-.182.218-.28.513-.477 1.103L8 5m2 5v7m4-7v4"/>
    </symbol>

    <symbol id="user-filled" xmlns="http://www.w3.org/2000/svg" width="24" height="24" fill="none" viewBox="0 0 24 24">
      <path fill="currentColor" d="M7.25 6a4.75 4.75 0 1 1 9.5 0 4.75 4.75 0 0 1-9.5 0ZM8.95 13.25a5.7 5.7 0 0 0-5.7 5.7 3.8 3.8 0 0 0 3.8 3.8h9.9a3.8 3.8 0 0 0 3.8-3.8 5.7 5.7 0 0 0-5.7-5.7h-6.1Z"/>
    </symbol>

    <symbol id="user-plus-filled" xmlns="http://www.w3.org/2000/svg" width="24" height="24" fill="none" viewBox="0 0 24 24">
      <path fill="currentColor" fill-rule="evenodd" d="M9 1.25a4.75 4.75 0 1 0 0 9.5 4.75 4.75 0 0 0 0-9.5ZM.25 18.95a5.7 5.7 0 0 1 5.7-5.7h6.1a5.7 5.7 0 0 1 5.7 5.7 3.8 3.8 0 0 1-3.8 3.8h-9.9a3.8 3.8 0 0 1-3.8-3.8ZM20.75 7a.75.75 0 0 0-1.5 0v2.25H17a.75.75 0 0 0 0 1.5h2.25V13a.75.75 0 0 0 1.5 0v-2.25H23a.75.75 0 0 0 0-1.5h-2.25V7Z" clip-rule="evenodd"/>
    </symbol>

    <symbol id="users" xmlns="http://www.w3.org/2000/svg" width="24" height="24" fill="none" viewBox="0 0 24 24">
      <path stroke="currentColor" stroke-linecap="round" stroke-linejoin="round" stroke-width="1.5" d="M15 10a4 4 0 0 0 0-8m2 20h2.8a3.2 3.2 0 0 0 3.2-3.2v0a4.8 4.8 0 0 0-4.8-4.8H17m-5-8a4 4 0 1 1-8 0 4 4 0 0 1 8 0ZM4.2 22h7.6a3.2 3.2 0 0 0 3.2-3.2v0a4.8 4.8 0 0 0-4.8-4.8H5.8A4.8 4.8 0 0 0 1 18.8v0A3.2 3.2 0 0 0 4.2 22Z"/>
    </symbol>

    <symbol id="users-filled" xmlns="http://www.w3.org/2000/svg" width="24" height="24" fill="none" viewBox="0 0 24 24">
      <path fill="currentColor" fill-rule="evenodd" d="M8 1.25a4.75 4.75 0 1 0 0 9.5 4.75 4.75 0 0 0 0-9.5ZM.25 18.95a5.7 5.7 0 0 1 5.7-5.7h4.1a5.7 5.7 0 0 1 5.7 5.7 3.8 3.8 0 0 1-3.8 3.8h-7.9a3.8 3.8 0 0 1-3.8-3.8ZM15 1.25a.75.75 0 0 0 0 1.5 3.25 3.25 0 0 1 0 6.5.75.75 0 0 0 0 1.5 4.75 4.75 0 1 0 0-9.5Zm2 12a.75.75 0 0 0 0 1.5h1.2a4.05 4.05 0 0 1 4.05 4.05 2.45 2.45 0 0 1-2.45 2.45H17a.75.75 0 0 0 0 1.5h2.8a3.95 3.95 0 0 0 3.95-3.95 5.55 5.55 0 0 0-5.55-5.55H17Z" clip-rule="evenodd"/>
    </symbol>

    <symbol id="x" xmlns="http://www.w3.org/2000/svg" width="24" height="24" fill="none" viewBox="0 0 24 24">
      <path stroke="currentColor" stroke-linecap="round" stroke-linejoin="round" stroke-width="1.5" d="M6 18 18 6M6 6l12 12"/>
    </symbol>
  </defs>
</svg>


