<svg xmlns="http://www.w3.org/2000/svg" xmlns:xlink="http://www.w3.org/1999/xlink">
  <defs>
    <symbol id="gear" xmlns="http://www.w3.org/2000/svg" width="24" height="24" fill="none" viewBox="0 0 24 24">
      <path stroke="currentColor" stroke-linecap="round" stroke-linejoin="round" stroke-width="1.5" d="M12 4c-.697 0-1.387-.262-1.814-.813l-.452-.583a2 2 0 0 0-2.58-.507l-1.307.754a2 2 0 0 0-.851 2.489l.279.683c.264.645.147 1.37-.203 1.974v0C4.723 8.6 4.15 9.07 3.46 9.165l-.73.1A2 2 0 0 0 1 11.244v1.51a2 2 0 0 0 1.73 1.98l.73.1c.69.095 1.263.565 1.612 1.168v0c.35.604.467 1.329.203 1.974l-.28.683a2 2 0 0 0 .852 2.49l1.306.754a2 2 0 0 0 2.581-.508l.452-.583C10.613 20.262 11.303 20 12 20v0c.697 0 1.387.262 1.814.813l.452.583a2 2 0 0 0 2.58.507l1.307-.754a2 2 0 0 0 .852-2.489l-.28-.683c-.264-.645-.147-1.37.203-1.974v0c.349-.603.922-1.073 1.612-1.168l.73-.1a2 2 0 0 0 1.73-1.98v-1.51a2 2 0 0 0-1.73-1.98l-.73-.1c-.69-.095-1.263-.565-1.612-1.168v0c-.35-.604-.467-1.329-.203-1.974l.28-.683a2 2 0 0 0-.852-2.49l-1.306-.753a2 2 0 0 0-2.581.507l-.452.583C13.387 3.738 12.697 4 12 4v0Z"/>
      <path stroke="currentColor" stroke-linecap="round" stroke-linejoin="round" stroke-width="1.5" d="M15 12a3 3 0 1 1-6 0 3 3 0 0 1 6 0Z"/>
    </symbol>


    <symbol id="grid" xmlns="http://www.w3.org/2000/svg" width="24" height="24" fill="none" viewBox="0 0 24 24">
      <path stroke="currentColor" stroke-linecap="round" stroke-linejoin="round" stroke-width="1.5" d="M9 2v20m1 0h4c2.8 0 4.2 0 5.27-.545a5 5 0 0 0 2.185-2.185C22 18.2 22 16.8 22 14v-4c0-2.8 0-4.2-.545-5.27a5 5 0 0 0-2.185-2.185C18.2 2 16.8 2 14 2h-4c-2.8 0-4.2 0-5.27.545A5 5 0 0 0 2.545 4.73C2 5.8 2 7.2 2 10v4c0 2.8 0 4.2.545 5.27a5 5 0 0 0 2.185 2.185C5.8 22 7.2 22 10 22Z"/>
    </symbol>

    <symbol id="home-filled" xmlns="http://www.w3.org/2000/svg" width="24" height="24" fill="none" viewBox="0 0 24 24">
      <g clip-path="url(#a)">
        <path fill="currentColor" fill-rule="evenodd" d="M1.25 12.253c0-1.694 0-2.541.215-3.324a6 6 0 0 1 .927-1.928c.476-.656 1.138-1.186 2.46-2.244l1.15-.92C8.144 2.125 9.214 1.268 10.4.94a6 6 0 0 1 3.2 0c1.187.328 2.257 1.185 4.397 2.897l1.15.92C20.47 5.815 21.132 6.345 21.607 7a6 6 0 0 1 .928 1.928c.215.783.215 1.63.215 3.324v.897c0 3.36 0 5.04-.654 6.324a6 6 0 0 1-2.622 2.622c-1.284.654-2.964.654-6.324.654h-2.3c-3.36 0-5.04 0-6.324-.654a6 6 0 0 1-2.622-2.622C1.25 18.19 1.25 16.51 1.25 13.15v-.897Zm7.5 2.997a.75.75 0 0 0 0 1.5h6.5a.75.75 0 0 0 0-1.5h-6.5Z" clip-rule="evenodd"/>
      </g>
      <defs>
          <clipPath id="a">
              <path fill="currentColor" d="M0 0h24v24H0z"/>
          </clipPath>
      </defs>
    </symbol>

    <symbol id="users-filled" xmlns="http://www.w3.org/2000/svg" width="24" height="24" fill="none" viewBox="0 0 24 24">
      <path fill="currentColor" fill-rule="evenodd" d="M8 1.25a4.75 4.75 0 1 0 0 9.5 4.75 4.75 0 0 0 0-9.5ZM.25 18.95a5.7 5.7 0 0 1 5.7-5.7h4.1a5.7 5.7 0 0 1 5.7 5.7 3.8 3.8 0 0 1-3.8 3.8h-7.9a3.8 3.8 0 0 1-3.8-3.8ZM15 1.25a.75.75 0 0 0 0 1.5 3.25 3.25 0 0 1 0 6.5.75.75 0 0 0 0 1.5 4.75 4.75 0 1 0 0-9.5Zm2 12a.75.75 0 0 0 0 1.5h1.2a4.05 4.05 0 0 1 4.05 4.05 2.45 2.45 0 0 1-2.45 2.45H17a.75.75 0 0 0 0 1.5h2.8a3.95 3.95 0 0 0 3.95-3.95 5.55 5.55 0 0 0-5.55-5.55H17Z" clip-rule="evenodd"/>
    </symbol>

    <symbol id="x" xmlns="http://www.w3.org/2000/svg" width="24" height="24" fill="none" viewBox="0 0 24 24">
      <path stroke="currentColor" stroke-linecap="round" stroke-linejoin="round" stroke-width="1.5" d="M6 18 18 6M6 6l12 12"/>
    </symbol>
  </defs>
</svg>

